<svg version="1.2" xmlns="http://www.w3.org/2000/svg" viewBox="0 0 294 294" width="294" height="294">
	<title>floplogo-svg</title>
	<style>
		.s0 { fill: #000000 } 
		.s1 { fill: #000000;stroke: #000000;stroke-miterlimit:100 } 
		.s2 { fill: #fefefe } 
	</style>
	<g id="Background">
		<path id="Path 1" class="s0" d="m2.8 23.5l-2.3 5-0.5 265.5h294v-232.5l-61-61v97.5h-172v-98c-28.9 0.2-56.9 20.8-58.2 23.5z"/>
		<path id="Path 2" class="s1" d="m64.5 47.5l0.3 47.5h156.4l0.5-95h-157.6z"/>
		<path id="Path 3" class="s2" d="m134 124.3c-2.5 0.7-6.8 2.4-9.5 3.7-2.8 1.3-7.9 5.4-11.6 9-4.1 4.1-7.7 8.9-9.7 13-1.7 3.6-3.7 9.7-4.4 13.5-0.9 5.1-0.9 9-0.2 14.5 0.6 4.3 2.3 10.3 4 14 2 4.2 5.3 8.8 9.5 13.2 4.8 4.9 8.4 7.6 14.4 10.5 8 3.8 8.1 3.8 20.5 3.8 12.5 0 12.5 0 20.5-3.9 5.7-2.7 9.7-5.6 14.1-10 3.6-3.6 7.3-8.7 9.2-12.6 1.8-3.6 3.7-9 4.3-12 0.6-3 0.9-8.7 0.6-12.5-0.3-3.8-1.3-9.2-2.1-12-0.8-2.7-3.4-7.9-5.8-11.5-2.4-3.5-7.2-8.8-10.8-11.7-3.6-2.9-9-6.2-12-7.4-4-1.6-8.3-2.2-16-2.5-6.6-0.2-12.2 0.1-15 0.9z"/>
		<path id="Path 4" class="s1" d="m140.5 148.2c-2.2 0.6-5.3 2-7 3.2-1.7 1.1-3.6 2.7-4.3 3.6-0.7 0.8-2.5 4-3.9 7-1.4 3-2.6 7.3-2.6 9.5 0 2.2 1.2 6.5 2.5 9.5 1.4 3 4 7 5.9 8.7 1.9 1.8 5.2 3.9 7.4 4.6 2.2 0.8 6 1.3 8.5 1.2 2.5 0 6.3-0.6 8.5-1.2 2.2-0.7 5.5-2.7 7.4-4.5 1.9-1.8 4.5-5.8 5.9-8.8 1.3-3 2.5-7.3 2.5-9.5 0-2.2-1.2-6.5-2.5-9.5-1.4-3-3.6-6.6-4.9-7.9-1.3-1.4-4.2-3.3-6.4-4.3-2.2-0.9-6-1.9-8.5-2.2-2.5-0.3-6.3 0-8.5 0.6z"/>
	</g>
</svg>